#!OML:ASF G:\JayActor3\Patient Classification 1\Patient 1\Session 5\male.ASF
:FULLY-SPECIFIED
:DEGREES
1233
root 71.7039 15.9097 -7.4285 -167.707 -93.6962 165.928
lowerback 2.43027 -3.04815 2.1819
upperback 4.09112 -4.21236 2.23783
thorax 2.86327 -2.12452 1.07519
lowerneck -1.70564 3.0227 6.68213
upperneck 12.6205 4.32807 -7.3346
head 4.34349 1.98692 -3.17429
rclavicle 2.90226e-014 8.74653e-015
rhumerus -29.2817 2.63428 -85.3402
rradius 21.9823
rwrist -0.288424
rhand -17.9032 -14.646
rfingers 7.12502
rthumb 8.36378 -44.4604
lclavicle 2.90226e-014 8.74653e-015
lhumerus -36.6665 0.905482 86.8578
lradius 28.5049
lwrist 18.76
lhand -7.66402 14.8922
lfingers 7.12502
lthumb 18.2321 44.0577
rfemur -4.62087 1.60214 25.2988
rtibia 29.2571
rfoot -30.5652 -9.01723
rtoes 12.8817
lfemur -11.0224 8.37216 -16.477
ltibia 37.8637
lfoot -25.6068 -0.984298
ltoes 47.5391
1234
root 71.7062 15.914 -7.4152 -168.006 -93.7643 166.246
lowerback 2.26875 -3.13053 2.09821
upperback 4.1011 -4.33211 2.31
thorax 2.9768 -2.18751 1.18511
lowerneck -1.47469 3.031 6.71294
upperneck 12.3126 4.34719 -7.39893
head 4.21442 2.00299 -3.20073
rclavicle -6.36111e-015 0
rhumerus -29.1557 2.78479 -85.3714
rradius 22.0068
rwrist -1.08153
rhand -18.7377 -14.4753
rfingers 7.12502
rthumb 7.55831 -44.3203
lclavicle -6.36111e-015 0
lhumerus -36.7334 0.759118 86.9513
lradius 28.2726
lwrist 18.8587
lhand -7.29184 14.7091
lfingers 7.12502
lthumb 18.5901 43.8408
rfemur -4.60882 1.69408 25.2687
rtibia 29.15
rfoot -30.401 -9.13852
rtoes 13.1456
lfemur -10.6404 8.38609 -16.2828
ltibia 37.839
lfoot -25.075 -0.390533
ltoes 47.032
1235
root 71.7085 15.9183 -7.40163 -168.171 -93.8383 166.43
lowerback 2.10773 -3.20841 2.02434
upperback 4.10686 -4.44518 2.37654
thorax 3.08515 -2.24681 1.28343
lowerneck -1.22926 3.03883 6.76948
upperneck 11.9979 4.36392 -7.45604
head 4.08143 2.01988 -3.22965
rclavicle -1.09332e-014 -1.27222e-014
rhumerus -29.0138 2.9339 -85.3917
rradius 22.0304
rwrist -1.72249
rhand -19.2964 -14.3155
rfingers 7.12502
rthumb 7.019 -44.1791
lclavicle -1.09332e-014 -1.27222e-014
lhumerus -36.7874 0.523669 87.0412
lradius 28.0188
lwrist 18.7275
lhand -6.65834 14.5131
lfingers 7.12502
lthumb 19.1994 43.5854
rfemur -4.59959 1.78657 25.2505
rtibia 29.0417
rfoot -30.2307 -9.27805
rtoes 13.4505
lfemur -10.2676 8.44594 -16.0871
ltibia 37.7963
lfoot -24.4681 0.267142
ltoes 46.442
1236
root 71.7088 15.9229 -7.38894 -168.31 -93.9531 166.597
lowerback 1.91854 -3.29576 1.94142
upperback 4.10313 -4.571 2.4431
thorax 3.20096 -2.31257 1.38462
lowerneck -0.943539 3.04914 6.86495
upperneck 11.6648 4.38471 -7.52546
head 3.93784 2.04081 -3.26935
rclavicle -3.79679e-014 -1.98785e-014
rhumerus -28.8864 3.13303 -85.4113
rradius 22.0756
rwrist -2.23575
rhand -19.6044 -14.1151
rfingers 7.12502
rthumb 6.72172 -43.9884
lclavicle -3.79679e-014 -1.98785e-014
lhumerus -36.8452 0.143921 87.175
lradius 27.7597
lwrist 18.5921
lhand -5.90633 14.3628
lfingers 7.12502
lthumb 19.9224 43.3616
rfemur -4.5901 1.8564 25.2524
rtibia 28.9294
rfoot -30.079 -9.45213
rtoes 13.7671
lfemur -9.93322 8.58286 -15.8944
ltibia 37.7604
lfoot -23.7806 0.972594
ltoes 45.8031
1237
root 71.7076 15.9277 -7.37708 -168.396 -94.0819 166.733
lowerback 1.69925 -3.38678 1.84344
upperback 4.0851 -4.70161 2.51222
thorax 3.32106 -2.38101 1.4945
lowerneck -0.624197 3.0635 6.99169
upperneck 11.3074 4.41275 -7.61399
head 3.78331 2.06667 -3.32048
rclavicle 2.06736e-014 -9.54166e-015
rhumerus -28.7896 3.43738 -85.4488
rradius 22.1614
rwrist -2.69656
rhand -19.7224 -14.1406
rfingers 7.12502
rthumb 6.60784 -44.0175
lclavicle 2.06736e-014 -9.54166e-015
lhumerus -36.9038 -0.335201 87.3541
lradius 27.5016
lwrist 18.5259
lhand -5.28047 14.1956
lfingers 7.12502
lthumb 20.5239 43.1307
rfemur -4.60594 1.90191 25.2622
rtibia 28.8193
rfoot -29.9312 -9.63846
rtoes 14.0841
lfemur -9.66786 8.8554 -15.7273
ltibia 37.7348
lfoot -23.0271 1.78203
ltoes 45.1568
1238
root 71.7043 15.9328 -7.36588 -168.411 -94.2155 166.811
lowerback 1.46097 -3.47925 1.73734
upperback 4.04261 -4.83279 2.58227
thorax 3.42804 -2.44976 1.60861
lowerneck -0.248247 3.0744 7.11398
upperneck 10.9315 4.43761 -7.69292
head 3.61367 2.09221 -3.36915
rclavicle 1.97791e-014 -2.78299e-014
rhumerus -28.7245 3.82711 -85.4912
rradius 22.2294
rwrist -3.01704
rhand -19.5601 -14.4348
rfingers 7.12502
rthumb 6.76446 -44.3067
lclavicle 1.97791e-014 -2.78299e-014
lhumerus -36.9798 -0.72029 87.4905
lradius 27.2533
lwrist 18.4451
lhand -4.72066 14.0678
lfingers 7.12502
lthumb 21.0618 42.944
rfemur -4.63876 1.91888 25.2797
rtibia 28.7151
rfoot -29.793 -9.82856
rtoes 14.3913
lfemur -9.48692 9.43527 -15.6117
ltibia 37.7064
lfoot -22.2848 2.77447
ltoes 44.4507
1239
root 71.7002 15.9375 -7.35436 -168.345 -94.336 166.818
lowerback 1.20107 -3.56555 1.631
upperback 4.00263 -4.95635 2.65346
thorax 3.55068 -2.51471 1.72171
lowerneck 0.112015 3.08488 7.21548
upperneck 10.5521 4.46173 -7.76376
head 3.44539 2.11671 -3.41196
rclavicle -2.59414e-014 1.82882e-014
rhumerus -28.7077 4.3276 -85.5847
rradius 22.3909
rwrist -3.58857
rhand -19.6796 -14.633
rfingers 7.12502
rthumb 6.64913 -44.5086
lclavicle -2.59414e-014 1.82882e-014
lhumerus -37.0196 -0.965585 87.5567
lradius 26.994
lwrist 18.2567
lhand -4.19031 14.0124
lfingers 7.12502
lthumb 21.5712 42.831
rfemur -4.69066 1.91971 25.2973
rtibia 28.6219
rfoot -29.6517 -10.015
rtoes 14.6748
lfemur -9.3026 9.94904 -15.4799
ltibia 37.6694
lfoot -21.3983 3.62887
ltoes 43.6202
1240
root 71.6962 15.9434 -7.34184 -168.327 -94.4312 166.917
lowerback 0.913119 -3.63925 1.52631
upperback 3.95519 -5.06284 2.72104
thorax 3.68134 -2.5708 1.82805
lowerneck 0.407956 3.08864 7.28034
upperneck 10.1968 4.47428 -7.81434
head 3.29328 2.13355 -3.44218
rclavicle -6.32135e-014 3.49861e-014
rhumerus -28.7035 4.88046 -85.6936
rradius 22.5968
rwrist -4.23496
rhand -19.8228 -14.8404
rfingers 7.12502
rthumb 6.51091 -44.7203
lclavicle -6.32135e-014 3.49861e-014
lhumerus -37.03 -1.07059 87.5636
lradius 26.749
lwrist 18.0005
lhand -3.7968 14.0256
lfingers 7.12502
lthumb 21.9491 42.8004
rfemur -4.79792 1.92619 25.2925
rtibia 28.5334
rfoot -29.4872 -10.196
rtoes 14.9503
lfemur -9.15201 10.3762 -15.36
ltibia 37.6148
lfoot -20.431 4.26388
ltoes 42.5313
1241
root 71.6932 15.9489 -7.32791 -168.103 -94.5011 166.806
lowerback 0.655011 -3.70783 1.44758
upperback 3.8975 -5.16077 2.78455
thorax 3.78237 -2.62184 1.91789
lowerneck 0.721147 3.08876 7.33532
upperneck 9.83169 4.48243 -7.86132
head 3.13508 2.14831 -3.47033
rclavicle 6.2319e-014 -1.03368e-014
rhumerus -28.6953 5.46346 -85.8097
rradius 22.7794
rwrist -4.83573
rhand -19.8939 -15.0746
rfingers 7.12502
rthumb 6.44221 -44.9567
lclavicle 6.2319e-014 -1.03368e-014
lhumerus -37.0587 -1.07483 87.5082
lradius 26.551
lwrist 17.6368
lhand -3.50498 14.0948
lfingers 7.12502
lthumb 22.2292 42.8365
rfemur -4.90906 1.94459 25.2935
rtibia 28.4504
rfoot -29.3109 -10.3772
rtoes 15.232
lfemur -9.08318 11.0931 -15.2985
ltibia 37.5419
lfoot -19.5586 4.91511
ltoes 41.0883
1242
root 71.6908 15.956 -7.31264 -167.911 -94.545 166.752
lowerback 0.394002 -3.76385 1.38298
upperback 3.83082 -5.24088 2.83895
thorax 3.87353 -2.66318 1.99068
lowerneck 1.01432 3.08377 7.38152
upperneck 9.47307 4.48275 -7.90139
head 2.98148 2.1587 -3.49507
rclavicle -5.56597e-015 1.43125e-014
rhumerus -28.6995 6.0476 -85.9347
rradius 22.9845
rwrist -5.48083
rhand -19.9823 -15.2246
rfingers 7.12502
rthumb 6.35687 -45.1092
lclavicle -5.56597e-015 1.43125e-014
lhumerus -37.0768 -1.02112 87.4129
lradius 26.3725
lwrist 17.2041
lhand -3.26139 14.233
lfingers 7.12502
lthumb 22.4631 42.9466
rfemur -5.05803 1.98818 25.2773
rtibia 28.3856
rfoot -29.1261 -10.5595
rtoes 15.5206
lfemur -9.14075 12.1268 -15.3293
ltibia 37.4578
lfoot -18.8164 5.56992
ltoes 39.2369
1243
root 71.6903 15.9631 -7.29543 -167.707 -94.5602 166.693
lowerback 0.157481 -3.80849 1.33121
upperback 3.76473 -5.30483 2.88671
thorax 3.94955 -2.69602 2.05145
lowerneck 1.25897 3.07448 7.41137
upperneck 9.1288 4.47498 -7.93013
head 2.83919 2.16394 -3.51326
rclavicle -4.33351e-014 5.24792e-014
rhumerus -28.7125 6.65788 -86.0698
rradius 23.2408
rwrist -6.20677
rhand -20.0871 -15.2749
rfingers 7.12502
rthumb 6.25574 -45.1625
lclavicle -4.33351e-014 5.24792e-014
lhumerus -37.075 -0.949097 87.2976
lradius 26.2023
lwrist 16.724
lhand -3.05021 14.4157
lfingers 7.12502
lthumb 22.6658 43.1047
rfemur -5.24949 2.0574 25.2457
rtibia 28.3754
rfoot -28.9532 -10.731
rtoes 15.8112
lfemur -9.25151 13.1375 -15.3775
ltibia 37.3843
lfoot -18.077 6.01869
ltoes 36.8595
